#!OML:ASF F:\VICON\USERDATA\INSTALL\rory3\rory3.ASF
:FULLY-SPECIFIED
:DEGREES
82
root 1.60873 17.4575 -36.3959 12.4492 -4.52164 -8.79983
lowerback -5.82819 3.46887 10.0065
upperback -4.23511 4.17141 1.75673
thorax -0.590057 1.91524 -3.52073
lowerneck -13.5806 -3.12187 -7.39151
upperneck 24.8732 -3.65299 4.07261
head 10.4141 -1.90085 2.22722
rclavicle -1.23231e-015 -1.12313e-014
rhumerus -32.0548 10.3504 -89.2501
rradius 40.1161
rwrist 0.956207
rhand -22.8923 -51.4725
rfingers 7.12502
rthumb 3.54706 -81.4227
lclavicle -1.23231e-015 -1.12313e-014
lhumerus -44.7965 -4.85894 87.873
lradius 35.123
lwrist 11.9495
lhand -33.2612 -27.5702
lfingers 7.12502
lthumb -6.46633 2.31113
rfemur -15.1489 6.58489 34.525
rtibia 25.4533
rfoot -18.7449 -6.40926
rtoes 6.35241
lfemur -44.3201 -0.447425 -11.4842
ltibia 37.6265
lfoot -13.2077 9.62744
ltoes -10.1353
83
root 1.59828 17.4615 -36.3051 12.8118 -4.41877 -8.9157
lowerback -5.47292 3.3167 9.89596
upperback -4.02039 4.00514 1.93855
thorax -0.60291 1.84244 -3.29735
lowerneck -16.1773 -3.22836 -7.53512
upperneck 25.729 -3.55173 3.96595
head 11.2379 -1.85944 2.21359
rclavicle 1.73005e-015 2.68359e-014
rhumerus -30.9311 10.8592 -89.1011
rradius 39.8317
rwrist 1.16204
rhand -23.6732 -49.0718
rfingers 7.12502
rthumb 2.79296 -79.0333
lclavicle 1.73005e-015 2.68359e-014
lhumerus -44.0126 -4.12872 87.7497
lradius 34.803
lwrist 11.6717
lhand -33.242 -27.4596
lfingers 7.12502
lthumb -6.44787 2.42223
rfemur -14.8884 6.5631 34.6754
rtibia 24.8845
rfoot -18.8447 -6.14876
rtoes 7.4586
lfemur -44.7548 -0.777878 -11.1083
ltibia 35.9047
lfoot -12.4323 9.58947
ltoes -11.6029
84
root 1.58412 17.4615 -36.2264 13.1992 -4.25477 -8.845
lowerback -5.05462 3.10516 9.70038
upperback -4.15268 3.79619 1.999
thorax -1.01595 1.72123 -3.16899
lowerneck -17.4512 -3.12109 -7.65151
upperneck 26.1213 -3.28131 4.01062
head 11.626 -1.73369 2.28614
rclavicle 1.86454e-014 1.69961e-014
rhumerus -30.5953 11.2553 -89.2508
rradius 40.2472
rwrist 0.493361
rhand -22.0235 -52.9019
rfingers 7.12502
rthumb 4.38606 -82.8365
lclavicle 1.86454e-014 1.69961e-014
lhumerus -43.8912 -3.50357 87.5665
lradius 34.475
lwrist 11.5003
lhand -33.0309 -27.44
lfingers 7.12502
lthumb -6.24403 2.44802
rfemur -14.6996 6.71516 34.6503
rtibia 24.2502
rfoot -18.1789 -6.52305
rtoes 4.98469
lfemur -45.2797 -1.0801 -10.9623
ltibia 34.2295
lfoot -11.3441 9.10713
ltoes -10.874
85
root 1.57286 17.4661 -36.1382 13.6386 -3.95142 -8.79106
lowerback -5.70072 3.02142 9.5691
upperback -4.27677 3.6181 2.02786
thorax -0.817027 1.64014 -3.04788
lowerneck -16.7367 -3.00892 -7.62989
upperneck 25.6487 -3.17908 4.02103
head 11.2954 -1.68653 2.30022
rclavicle 2.16986e-014 1.65985e-014
rhumerus -30.6737 11.2145 -89.34
rradius 40.6866
rwrist -0.364272
rhand -21.115 -54.6489
rfingers 7.12502
rthumb 5.26333 -84.5635
lclavicle 2.16986e-014 1.65985e-014
lhumerus -44.1039 -3.26054 87.5633
lradius 34.1143
lwrist 11.5006
lhand -33.4272 -26.4807
lfingers 7.12502
lthumb -6.62664 3.39558
rfemur -14.5789 6.53152 34.6734
rtibia 23.6564
rfoot -18.0214 -6.34854
rtoes 5.64344
lfemur -45.8756 -1.45116 -10.8109
ltibia 32.6477
lfoot -10.2105 8.58949
ltoes -11.2699
86
root 1.57819 17.4788 -36.0082 13.7857 -4.38726 -9.0326
lowerback -5.78454 3.215 9.91599
upperback -4.68859 3.87888 2.01099
thorax -1.15313 1.73552 -3.24577
lowerneck -15.5609 -2.97386 -7.62618
upperneck 25.5405 -3.22914 4.03304
head 11.0255 -1.71919 2.30301
rclavicle -1.80863e-014 -3.93594e-014
rhumerus -31.5862 11.1408 -89.6612
rradius 40.6767
rwrist -0.303215
rhand -22.0416 -53.3013
rfingers 7.12502
rthumb 4.36862 -83.2362
lclavicle -1.80863e-014 -3.93594e-014
lhumerus -45.2314 -3.18005 87.579
lradius 33.9602
lwrist 11.6368
lhand -33.5731 -26.2022
lfingers 7.12502
lthumb -6.76745 3.66969
rfemur -13.8928 6.32398 34.8261
rtibia 22.9828
rfoot -17.8993 -5.69566
rtoes 5.82155
lfemur -45.7743 -1.69399 -10.2581
ltibia 31.1541
lfoot -9.65053 8.62726
ltoes -11.4628
87
root 1.57932 17.4819 -35.8882 13.8878 -4.63395 -9.22962
lowerback -5.57741 3.34826 10.1619
upperback -4.80461 4.08116 1.97112
thorax -1.34898 1.81765 -3.42372
lowerneck -15.845 -3.05278 -7.55225
upperneck 25.6768 -3.35589 4.07906
head 11.1406 -1.76233 2.28879
rclavicle 5.08376e-014 3.69739e-014
rhumerus -31.6599 10.8495 -89.7712
rradius 39.9766
rwrist 0.739082
rhand -22.2193 -52.8066
rfingers 7.12502
rthumb 4.19698 -82.745
lclavicle 5.08376e-014 3.69739e-014
lhumerus -45.5427 -3.151 87.5332
lradius 33.6219
lwrist 11.8232
lhand -32.2481 -18.0537
lfingers 7.12502
lthumb -5.48829 11.8553
rfemur -13.1505 6.16494 34.9768
rtibia 22.2591
rfoot -17.9514 -5.18261
rtoes 6.91771
lfemur -45.6945 -1.95601 -9.7567
ltibia 29.7223
lfoot -9.37187 8.63829
ltoes -10.9486
88
root 1.57685 17.4869 -35.7744 13.8663 -4.86647 -9.24435
lowerback -5.89019 3.42202 10.1343
upperback -4.47169 4.1129 1.97294
thorax -0.821254 1.8679 -3.37514
lowerneck -16.2981 -3.05161 -7.50021
upperneck 25.4918 -3.3375 4.11397
head 11.1584 -1.73758 2.28999
rclavicle -2.49304e-014 -5.42682e-014
rhumerus -31.0701 10.7458 -89.7175
rradius 39.8837
rwrist 0.495076
rhand -21.2188 -53.5428
rfingers 7.12502
rthumb 5.16309 -83.4599
lclavicle -2.49304e-014 -5.42682e-014
lhumerus -45.1189 -2.69146 87.3106
lradius 33.2069
lwrist 11.1584
lhand -31.9465 -14.7145
lfingers 7.12502
lthumb -5.19703 15.2017
rfemur -12.2452 6.18944 34.9555
rtibia 21.4395
rfoot -17.8005 -5.04461
rtoes 6.36254
lfemur -45.5388 -2.18371 -9.52516
ltibia 28.4334
lfoot -9.17035 8.79912
ltoes -12.1011
